<?xml version="1.0" encoding="UTF-8"?>
<svg version="1.1" xmlns="http://www.w3.org/2000/svg" width="500" height="500">
<path d="M0 0 C165 0 330 0 500 0 C500 165 500 330 500 500 C335 500 170 500 0 500 C0 335 0 170 0 0 Z " fill="#FE5252" transform="translate(0,0)"/>
<path d="M0 0 C0.82589172 0.00037972 1.65178344 0.00075944 2.50270218 0.00115067 C3.45247625 -0.0008402 4.40225033 -0.00283108 5.38080543 -0.00488228 C6.4359311 -0.00196961 7.49105676 0.00094305 8.57815593 0.00394398 C9.68704174 0.00308796 10.79592754 0.00223194 11.93841594 0.00134999 C15.69696153 -0.00031619 19.45546337 0.00523615 23.21400493 0.01067311 C25.93747494 0.01153416 28.66094411 0.01089089 31.38441414 0.01030785 C37.96210139 0.0097749 44.53977506 0.01440476 51.11745882 0.02080918 C58.72146025 0.02799213 66.32545346 0.02880299 73.92945904 0.029594 C94.01771803 0.03485037 114.10597399 0.04881139 134.19422954 0.0616985 C179.05360454 0.0823235 223.91297954 0.1029485 270.13172954 0.1241985 C270.13172954 165.1241985 270.13172954 330.1241985 270.13172954 500.1241985 C202.48172954 500.1241985 134.83172954 500.1241985 65.13172954 500.1241985 C66.38172954 412.6241985 66.38172954 412.6241985 66.99598736 385.06365162 C67.04303957 376.86368103 67.04303957 376.86368103 67.05281109 368.66362721 C67.05814098 365.02565467 67.14151911 361.39875834 67.27400249 357.76323658 C68.7551881 338.83124443 68.7551881 338.83124443 62.89963382 321.47634083 C56.5902217 314.97193453 48.10510483 311.6808699 39.76725048 308.58476979 C33.80972193 306.19133146 28.49017453 302.88311983 23.00672954 299.5616985 C20.87901939 298.32691495 18.74910171 297.09592024 16.61610454 295.87029225 C15.55842876 295.25911549 14.50075298 294.64793873 13.41102642 294.01824147 C9.99076149 292.04277874 6.5692732 290.06945078 3.14735454 288.09685475 C1.98215085 287.42506437 0.81694901 286.75327078 -0.34825093 286.08147389 C-2.52946483 284.82397411 -4.71077203 283.56663615 -6.89219624 282.30950123 C-13.89717668 278.2698158 -20.88701231 274.20473846 -27.86827046 270.1241985 C-28.40203766 288.95031208 -27.06849604 312.0081112 -13.57530171 326.60466725 C-10.86818003 329.12428266 -8.08517555 331.19548236 -5.05577046 333.3116985 C4.41438715 340.33869505 12.75348305 350.23296603 15.13172954 362.1241985 C15.52040794 366.94381057 15.62274034 369.1772491 13.38172954 373.4991985 C10.6284663 376.71133895 8.75942959 377.88811986 4.57313579 378.49529225 C-7.68696069 378.77808959 -17.85397763 373.88598596 -27.86827046 367.1241985 C-29.54956945 365.44289951 -29.23396972 363.26809601 -29.46299702 361.00798756 C-31.711853 338.97323281 -41.23259305 319.94268241 -57.86827046 305.1241985 C-61.33305948 302.53204811 -64.92957056 300.17068981 -68.55577046 297.8116985 C-87.96152029 284.8353219 -103.49841141 271.8508968 -108.34483296 247.9835735 C-109.10551322 242.37497573 -109.04199545 236.87561311 -108.87608296 231.22966725 C-108.87350483 230.20486256 -108.87092671 229.18005787 -108.86827046 228.1241985 C-110.48410753 226.50836143 -112.49249013 225.48802363 -114.42637593 224.29412037 C-126.85061439 216.56004 -140.60506953 206.31195751 -145.86827046 192.1241985 C-146.16604389 191.32240162 -146.46381733 190.52060475 -146.77061421 189.694511 C-148.31797355 184.66024511 -148.98366727 180.34357919 -148.45420796 175.10466725 C-147.20473503 165.6556035 -147.20473503 165.6556035 -150.39463764 157.11736256 C-154.44575228 153.47679307 -159.08597777 150.83418271 -163.85606343 148.24675709 C-175.15926019 141.94099408 -182.41689577 129.84346086 -187.05577046 118.1241985 C-188.89257722 111.34214277 -189.00461315 104.59949332 -188.93077046 97.6241985 C-188.92625874 96.80177662 -188.92174702 95.97935475 -188.91709858 95.132011 C-188.90545535 93.12937454 -188.88752601 91.12677623 -188.86827046 89.1241985 C-181.66796559 92.60135223 -174.74916315 96.43069752 -167.86827046 100.4991985 C-165.74362391 101.74719625 -163.6186111 102.99457064 -161.49327046 104.241386 C-160.40272358 104.88172779 -159.31217671 105.52206959 -158.18858296 106.18181568 C-152.76355842 109.35545504 -147.3156885 112.48920553 -141.86827046 115.6241985 C-130.59482718 122.11920015 -119.3467865 128.65641403 -108.11680561 135.22624928 C-105.19032168 136.93604081 -102.26160298 138.6419036 -99.33190876 140.34618336 C-96.76246274 141.84164002 -94.19459344 143.33979103 -91.62696797 144.83837086 C-90.40003398 145.55375935 -89.1725037 146.26812645 -87.94428974 146.9813152 C-62.8175021 161.57579867 -43.66345684 176.07582017 -34.70420796 204.944511 C-33.03984854 211.27529867 -31.89223255 217.66512052 -30.86827046 224.1241985 C-30.67233296 225.33333912 -30.47639546 226.54247975 -30.27452046 227.788261 C-29.34975799 234.24799882 -28.78818166 239.92021167 -29.36827046 246.4210735 C-30.48057321 258.13105509 -30.48057321 258.13105509 -25.8931728 268.41765553 C-20.26137991 272.81082601 -13.82288062 275.64467056 -7.32481343 278.52458912 C-1.65530071 281.1483105 3.64065283 284.37439102 9.00672954 287.5616985 C11.17801009 288.81758727 13.35120298 290.07017544 15.52626079 291.319511 C16.60987896 291.94373951 17.69349712 292.56796803 18.8099522 293.21111256 C21.05176104 294.50222046 23.2936243 295.79323386 25.53553814 297.08415943 C27.80674239 298.39208777 30.07765954 299.70051479 32.34828228 301.0094524 C34.55350634 302.27964859 36.76002103 303.54760709 38.96791118 304.81316334 C43.8111187 307.5956926 48.62534954 310.40429606 53.36610454 313.3585735 C54.14912945 313.84092457 54.93215435 314.32327564 55.73890728 314.82024342 C57.15969548 315.70058788 58.5715633 316.59557961 59.97181743 317.5082317 C62.01606721 318.82603948 62.01606721 318.82603948 65.13172954 320.1241985 C68.59639464 319.04863131 71.66031363 317.36242639 74.80751079 315.5773235 C75.70582622 315.06919117 76.60414165 314.56105885 77.52967876 314.03752857 C78.49148052 313.48862965 79.45328228 312.93973072 80.44422954 312.3741985 C81.45243755 311.80145191 82.46064556 311.22870533 83.49940532 310.63860279 C96.510931 303.22800507 109.47815147 295.72797588 122.31532329 288.01872975 C123.10310161 287.5478191 123.89087993 287.07690846 124.70253032 286.59172779 C126.15361122 285.72269122 127.60144278 284.84819609 129.04530376 283.96721607 C133.79757607 281.1241985 133.79757607 281.1241985 137.13172954 281.1241985 C135.85376094 284.9581043 134.65722286 285.23056664 131.16297954 287.12810475 C130.12600933 287.69843434 129.08903911 288.26876393 128.02064556 288.85637623 C126.90230327 289.46038258 125.78396099 290.06438893 124.63172954 290.6866985 C122.31716083 291.95874206 120.00335918 293.23218232 117.69032329 294.507011 C116.55836529 295.12866139 115.42640728 295.75031178 114.26014751 296.39080006 C110.3632844 298.54997971 106.52555152 300.78816677 102.69422954 303.0616985 C91.22738999 309.84136276 79.67029229 316.46733537 68.13172954 323.1241985 C68.13172954 380.8741985 68.13172954 438.6241985 68.13172954 498.1241985 C85.07770247 488.44078539 102.0151506 478.74781002 118.91395611 468.98308522 C124.318436 465.86095245 129.72520367 462.74278645 135.13172954 459.6241985 C137.29840705 458.37421728 139.46507372 457.12421729 141.63172954 455.8741985 C154.63172954 448.3741985 154.63172954 448.3741985 157.88343853 446.49822193 C160.04441942 445.25149594 162.20538952 444.00475123 164.36634868 442.75798756 C169.86991806 439.58273966 175.37368987 436.40784355 180.87782329 433.2335735 C181.99866314 432.58710865 183.11950298 431.94064381 184.27430767 431.27458912 C186.36277685 430.07003636 188.45131061 428.86559554 190.53993267 427.66130787 C192.51205522 426.52379487 194.46287427 425.34850786 196.39006084 424.13642079 C199.15506345 422.51012276 201.78738799 421.59555365 204.87010235 420.72769886 C210.78876353 418.74038973 215.50563425 416.35581336 219.13172954 411.1241985 C222.58169441 399.51276745 221.40056841 386.64156643 221.05821437 374.67127401 C220.9389424 369.79643151 220.9282416 364.92134116 220.90573162 360.04526478 C220.84681424 350.82478655 220.69111351 341.60861943 220.50009131 332.39003491 C220.28726762 321.88998651 220.1831455 311.38972534 220.08787805 300.88805503 C219.88959619 279.29770189 219.55569465 257.71122233 219.13172954 236.1241985 C215.58556385 238.16938346 212.03948058 240.21471126 208.4934687 242.26016289 C207.29092882 242.95380042 206.08836769 243.6474011 204.88578361 244.34096199 C198.69149874 247.91339598 192.49777172 251.48671709 186.31453079 255.0782457 C184.55774288 256.0979771 182.79917016 257.11455903 181.03993267 258.13005787 C179.32268577 259.12150982 177.60565084 260.1133524 175.89271587 261.11223561 C174.14383724 262.13133584 172.38982684 263.14161377 170.63563579 264.15154225 C169.64378277 264.72638355 168.65192974 265.30122486 167.63002056 265.89348561 C165.13172954 267.1241985 165.13172954 267.1241985 162.13172954 267.1241985 C162.13172954 266.4641985 162.13172954 265.8041985 162.13172954 265.1241985 C162.85424907 264.71282643 163.57676861 264.30145436 164.32118267 263.87761647 C177.47467025 256.3847817 190.61685312 248.87429623 203.69422954 241.2491985 C204.70356548 240.66122486 205.71290142 240.07325123 206.75282329 239.46746022 C212.00567522 236.39818788 212.00567522 236.39818788 217.13172954 233.1241985 C210.49896327 228.5219978 203.63911339 224.51305163 196.56922954 220.6241985 C188.09754004 215.92305143 179.67552475 211.15259492 171.31922954 206.2491985 C162.66309288 201.17269408 153.9745834 196.15631081 145.25672954 191.1866985 C136.20083411 186.02365374 127.1570743 180.84055583 118.13172954 175.6241985 C104.49269147 167.74236355 90.81451747 159.92974693 77.13172954 152.1241985 C77.13172954 148.1641985 77.13172954 144.2041985 77.13172954 140.1241985 C78.45172954 140.4541985 79.77172954 140.7841985 81.13172954 141.1241985 C80.53747173 140.8560735 79.94321392 140.5879485 79.33094829 140.3116985 C62.74955131 132.47228219 45.97436217 119.51885207 39.30726665 101.95183522 C37.08105025 95.2274948 36.7376436 89.10840189 36.88172954 82.0616985 C36.88688579 81.0182024 36.89204204 79.97470631 36.89735454 78.89958912 C36.97678591 71.27914213 36.97678591 71.27914213 38.13172954 70.1241985 C37.05922954 69.6498235 35.98672954 69.1754485 34.88172954 68.6866985 C21.23462536 61.80297399 7.75058536 50.00038498 1.13172954 36.1241985 C0.72051861 35.30435475 0.30930767 34.484511 -0.11436421 33.6398235 C-4.27075439 23.68749821 -3.79222452 11.7439353 -2.86827046 1.1241985 C-1.86827046 0.1241985 -1.86827046 0.1241985 0 0 Z " fill="#FE5252" transform="translate(229.86827045679092,-0.12419849634170532)"/>
<path d="M0 0 C0.51480184 22.72180099 0.90228665 45.44263609 1.13986778 68.16909313 C1.25313644 78.72270755 1.40741715 89.2726916 1.65966797 99.82397461 C1.879533 109.02502447 2.02100729 118.22344577 2.06994689 127.42704946 C2.09854738 132.29835436 2.16527254 137.16214333 2.32606125 142.03102684 C3.26659313 171.63127956 3.26659313 171.63127956 -2.15280151 178.87914276 C-7.30104837 183.3961629 -12.9570855 185.95997309 -19.41238785 188.09665489 C-22.92029431 189.32127819 -25.78388939 191.04686542 -28.921875 193.0234375 C-30.86388489 194.14183867 -32.80658406 195.25904388 -34.75 196.375 C-36.95314392 197.64319629 -39.15626835 198.91142645 -41.359375 200.1796875 C-42.45701172 200.81100586 -43.55464844 201.44232422 -44.68554688 202.09277344 C-50.12650565 205.22364924 -55.56305248 208.36216542 -61 211.5 C-63.16664498 212.75003758 -65.33331166 214.00003756 -67.5 215.25 C-69.10875 216.178125 -69.10875 216.178125 -70.75 217.125 C-82.66666667 224 -94.58333333 230.875 -106.5 237.75 C-108.11177124 238.67993774 -108.11177124 238.67993774 -109.75610352 239.62866211 C-111.90226227 240.86673743 -114.04858141 242.10453478 -116.19506836 243.34204102 C-121.30524525 246.28864907 -126.41364143 249.23823494 -131.51651001 252.19747925 C-133.94551977 253.60588062 -136.37543188 255.01272093 -138.80541992 256.41943359 C-140.53457851 257.42132206 -142.2624178 258.42548641 -143.99023438 259.4296875 C-145.54387695 260.32880859 -145.54387695 260.32880859 -147.12890625 261.24609375 C-148.04744385 261.77904053 -148.96598145 262.3119873 -149.91235352 262.86108398 C-152 264 -152 264 -153 264 C-153.51480184 241.27819901 -153.90228665 218.55736391 -154.13986778 195.83090687 C-154.25313644 185.27729245 -154.40741715 174.7273084 -154.65966797 164.17602539 C-154.879533 154.97497553 -155.02100729 145.77655423 -155.06994689 136.57295054 C-155.09854738 131.70164564 -155.16527254 126.83785667 -155.32606125 121.96897316 C-156.26646922 92.37172795 -156.26646922 92.37172795 -150.8500309 85.12255669 C-145.70529962 80.60681476 -140.05275788 78.04893292 -133.60178852 75.91185093 C-130.02827686 74.65943941 -127.10209531 72.88365361 -123.90234375 70.87109375 C-121.91486471 69.72517003 -119.92660239 68.58060358 -117.9375 67.4375 C-116.33467163 66.51505493 -116.33467163 66.51505493 -114.69946289 65.57397461 C-112.52921512 64.32562763 -110.35857015 63.07797088 -108.1875 61.83105469 C-105.02995851 60.01720962 -101.87433616 58.20005655 -98.71875 56.3828125 C-96.79181552 55.27578252 -94.86473957 54.16899875 -92.9375 53.0625 C-92.04474365 52.5480835 -91.1519873 52.03366699 -90.23217773 51.50366211 C-89.42208252 51.03968018 -88.6119873 50.57569824 -87.77734375 50.09765625 C-87.06827881 49.69039307 -86.35921387 49.28312988 -85.62866211 48.86352539 C-84 48 -84 48 -83 48 C-82.67 64.83 -82.34 81.66 -82 99 C-74.18884553 94.39732646 -74.18884553 94.39732646 -66.38330078 89.78515625 C-64.92899658 88.93244141 -64.92899658 88.93244141 -63.4453125 88.0625 C-62.45031738 87.47597656 -61.45532227 86.88945312 -60.43017578 86.28515625 C-58 85 -58 85 -56 85 C-56.0377504 84.35821808 -56.07550079 83.71643616 -56.11439514 83.0552063 C-56.49219106 76.34021123 -56.74747841 69.62824657 -56.93383789 62.90527344 C-57.01904574 60.40174732 -57.13486448 57.89906058 -57.2824707 55.3984375 C-58.43976284 35.27997483 -58.43976284 35.27997483 -54.49105835 29.97140503 C-50.55991537 26.5726634 -46.05586991 24.67720642 -41.22610474 22.87634277 C-37.9350035 21.5807466 -35.09568642 19.82808026 -32.07421875 17.98828125 C-29.94575375 16.76225447 -27.81685613 15.53697842 -25.6875 14.3125 C-23.5454029 13.07972247 -21.40347497 11.84665092 -19.26171875 10.61328125 C-18.23481934 10.02240723 -17.20791992 9.4315332 -16.14990234 8.82275391 C-11.84428754 6.3312239 -7.55915212 3.80512742 -3.27661133 1.27416992 C-1 0 -1 0 0 0 Z " fill="#010000" transform="translate(450,235)"/>
<path d="M0 0 C7.2003122 3.47715727 14.11905811 7.30657529 21 11.375 C23.12726524 12.62427522 25.25488158 13.87295275 27.3828125 15.12109375 C28.47368164 15.76159668 29.56455078 16.40209961 30.68847656 17.06201172 C36.07000971 20.21142267 41.47201477 23.32507957 46.875 26.4375 C47.94089355 27.05206055 49.00678711 27.66662109 50.10498047 28.29980469 C55.18331266 31.22717937 60.26320688 34.15182125 65.34506226 37.07307434 C67.1250134 38.09649255 68.90460669 39.12053013 70.68408203 40.14477539 C72.91349337 41.42778627 75.14359376 42.70960088 77.37451172 43.98999023 C78.89455811 44.86506226 78.89455811 44.86506226 80.4453125 45.7578125 C81.32719238 46.2645752 82.20907227 46.77133789 83.11767578 47.29345703 C84.06884277 47.85661621 85.02000977 48.41977539 86 49 C86.65985083 49.22191041 87.31970165 49.44382082 87.99954796 49.67245579 C90.67544255 50.7924891 92.12419951 51.76195361 94 54 C95.23451228 59.54899798 95.0106648 65.06471883 94.90820312 70.72387695 C94.90594607 72.45858149 94.9072141 74.19329368 94.91174316 75.92799377 C94.91403917 80.63482883 94.86699894 85.34003387 94.8111515 90.04648995 C94.76114953 94.96582037 94.75644239 99.88518795 94.74694824 104.80473328 C94.72208052 114.11932671 94.65642798 123.43316922 94.57615232 132.74743193 C94.48674097 143.35183481 94.4427492 153.9562735 94.40258884 164.56095946 C94.31896207 186.37439214 94.17824349 208.18714877 94 230 C90.53489604 228.64442003 87.38174469 227.16276676 84.17578125 225.26953125 C83.24330566 224.72176025 82.31083008 224.17398926 81.35009766 223.60961914 C79.84648682 222.72004517 79.84648682 222.72004517 78.3125 221.8125 C76.13966652 220.53587334 73.96647735 219.2598519 71.79296875 217.984375 C70.67067871 217.32501953 69.54838867 216.66566406 68.39208984 215.98632812 C62.98434152 212.81967775 57.55539169 209.69011241 52.125 206.5625 C51.04645752 205.94093018 49.96791504 205.31936035 48.85668945 204.67895508 C46.66530862 203.4161558 44.47382093 202.15354193 42.28222656 200.89111328 C36.85340058 197.76319852 31.42680719 194.63141552 26 191.5 C23.83334417 190.24998121 21.6666775 188.99998122 19.5 187.75 C13 184 13 184 6.5 180.25 C5.42693604 179.63092773 4.35387207 179.01185547 3.24829102 178.37402344 C1.08731012 177.12729744 -1.07365998 175.88055273 -3.23461914 174.63378906 C-8.73818851 171.45854117 -14.24196032 168.28364505 -19.74609375 165.109375 C-25.15531344 161.98980326 -30.56365811 158.8687185 -35.97167969 155.74707031 C-38.92032698 154.04596421 -41.87022045 152.34703651 -44.8203125 150.6484375 C-46.56774414 149.64068708 -48.31514212 148.6328783 -50.0625 147.625 C-50.86034912 147.16641602 -51.65819824 146.70783203 -52.48022461 146.23535156 C-57.88643197 143.11356803 -57.88643197 143.11356803 -59 142 C-59.09608663 140.35509451 -59.12187787 138.70604309 -59.12025452 137.05833435 C-59.12162918 135.98836212 -59.12300385 134.91838989 -59.12442017 133.81599426 C-59.12082489 132.63204575 -59.11722961 131.44809723 -59.11352539 130.22827148 C-59.11367142 128.989422 -59.11381744 127.75057251 -59.1139679 126.47418213 C-59.11338892 123.06730167 -59.10835959 119.66048116 -59.10139394 116.25361133 C-59.09515993 112.69683174 -59.09455656 109.14005142 -59.09336853 105.58326721 C-59.09025535 98.84363418 -59.08204215 92.10401729 -59.07201904 85.36439139 C-59.06085748 77.69341602 -59.05534735 70.02243989 -59.05032361 62.35145843 C-59.03985952 46.56762959 -59.02226035 30.78381687 -59 15 C-55.2274945 16.81232689 -51.93592653 19.10368 -48.5625 21.5625 C-44.92483388 24.20042919 -41.29206072 26.83041698 -37.54296875 29.30859375 C-16.93296805 43.02414582 -5.32172281 61.10788373 -0.31396484 85.03808594 C0.09131506 87.57061265 -0.01814492 90.00589321 -0.125 92.5625 C-0.10931174 94.89602267 -0.10931174 94.89602267 1 97 C5.34774441 100.4662839 9.94096341 102.73159327 15 105 C15.82757813 105.38285156 16.65515625 105.76570313 17.5078125 106.16015625 C23.36477854 108.48349149 29.78577027 108.88526736 36 108 C38.62580903 106.65939708 40.50087782 105.64172851 42.3125 103.3125 C44.56919088 95.72181249 42.38687342 88.88388906 39 82 C34.10809236 73.91232184 28.51854511 68.33614407 20.796875 63.03515625 C9.86944653 55.08377324 3.88400378 42.10563643 1.65454102 28.96362305 C1.35827332 26.7699332 1.10591503 24.57651644 0.875 22.375 C0.79008301 21.59463379 0.70516602 20.81426758 0.61767578 20.01025391 C-0.06368164 13.31320961 -0.17065819 6.73033234 0 0 Z " fill="#020101" transform="translate(201,269)"/>
<path d="M0 0 C7.20030487 3.47715373 14.11910731 7.30649902 21 11.375 C23.12464655 12.62299776 25.24965936 13.87037214 27.375 15.1171875 C28.46554688 15.7575293 29.55609375 16.39787109 30.6796875 17.05761719 C36.10471204 20.23125654 41.55258196 23.36500703 47 26.5 C58.27344327 32.99500166 69.52148395 39.53221554 80.75146484 46.10205078 C83.67794878 47.81184231 86.60666748 49.5177051 89.53636169 51.22198486 C92.10580772 52.71744152 94.67367701 54.21559253 97.24130249 55.71417236 C98.46823648 56.42956085 99.69576676 57.14392795 100.92398071 57.8571167 C126.05076836 72.45160017 145.20481362 86.95162167 154.1640625 115.8203125 C155.82842191 122.15110017 156.9760379 128.54092203 158 135 C158.1959375 136.20914063 158.391875 137.41828125 158.59375 138.6640625 C159.51851247 145.12380032 160.0800888 150.79601318 159.5 157.296875 C158.38769725 169.00685659 158.38769725 169.00685659 162.97509766 179.29345703 C168.60689055 183.68662751 175.04538983 186.52047206 181.54345703 189.40039062 C187.21296974 192.02411201 192.50892329 195.25019253 197.875 198.4375 C200.04628055 199.69338878 202.21947343 200.94597695 204.39453125 202.1953125 C205.47814941 202.81954102 206.56176758 203.44376953 207.67822266 204.08691406 C209.9200315 205.37802196 212.16189476 206.66903537 214.40380859 207.95996094 C216.67501285 209.26788927 218.94593 210.57631629 221.21655273 211.88525391 C223.4217768 213.15545009 225.62829149 214.4234086 227.83618164 215.68896484 C232.67938915 218.47149411 237.49362 221.28009756 242.234375 224.234375 C243.0173999 224.71672607 243.8004248 225.19907715 244.60717773 225.69604492 C246.02796593 226.57638939 247.43983376 227.47138111 248.84008789 228.3840332 C250.88433766 229.70184098 250.88433766 229.70184098 254 231 C257.46466509 229.92443282 260.52858409 228.2382279 263.67578125 226.453125 C264.57409668 225.94499268 265.47241211 225.43686035 266.39794922 224.91333008 C267.35975098 224.36443115 268.32155273 223.81553223 269.3125 223.25 C270.32070801 222.67725342 271.32891602 222.10450684 272.36767578 221.5144043 C285.37920146 214.10380657 298.34642192 206.60377738 311.18359375 198.89453125 C312.36526123 198.18816528 312.36526123 198.18816528 313.57080078 197.4675293 C315.02188167 196.59849272 316.46971324 195.72399759 317.91357422 194.84301758 C322.66584653 192 322.66584653 192 326 192 C324.7220314 195.8339058 323.52549332 196.10636815 320.03125 198.00390625 C318.47579468 198.85940063 318.47579468 198.85940063 316.88891602 199.73217773 C315.77057373 200.33618408 314.65223145 200.94019043 313.5 201.5625 C311.18543129 202.83454357 308.87162963 204.10798382 306.55859375 205.3828125 C305.42663574 206.00446289 304.29467773 206.62611328 303.12841797 207.26660156 C298.61864107 209.76538539 294.1157309 212.29622146 289.77738762 215.08501339 C285.50503551 217.76948442 281.3276506 219.66241111 276.57327271 221.3629303 C264.41456271 226.16462949 264.41456271 226.16462949 256.15688229 235.83942175 C252.62068783 247.03175522 253.77862699 259.70024729 254.16182852 271.26235843 C254.29717864 276.18264903 254.28354523 281.10259974 254.28640747 286.02442932 C254.31410499 295.32386438 254.47376504 304.61605385 254.68212235 313.91300493 C254.91298707 324.5051026 254.99484069 335.09676167 255.06482863 345.69095314 C255.21197366 367.4641497 255.54414406 389.2312204 256 411 C255.34 411 254.68 411 254 411 C254.02065647 410.10253807 254.04131294 409.20507614 254.06259537 408.2804184 C254.55677993 386.38622463 254.89412576 364.49442898 255.05958939 342.59519196 C255.14334844 332.00389297 255.27903435 321.41813771 255.53955078 310.82958984 C255.76664898 301.59383864 255.893693 292.36287802 255.90351081 283.12424898 C255.91212703 278.23503307 255.96879946 273.35762378 256.14563751 268.47135925 C257.61051257 249.62309299 257.61051257 249.62309299 251.76790428 232.35214233 C245.45849215 225.84773603 236.97337529 222.5566714 228.63552094 219.46057129 C222.67799239 217.06713296 217.35844499 213.75892134 211.875 210.4375 C209.74728985 209.20271645 207.61737216 207.97172175 205.484375 206.74609375 C203.89786133 205.82932861 203.89786133 205.82932861 202.27929688 204.89404297 C198.85903194 202.91858024 195.43754365 200.94525228 192.015625 198.97265625 C190.85042131 198.30086587 189.68521947 197.62907228 188.52001953 196.95727539 C186.33880563 195.69977562 184.15749843 194.44243765 181.97607422 193.18530273 C174.97109378 189.1456173 167.98125815 185.08053996 161 181 C160.46623279 199.82611358 161.79977442 222.8839127 175.29296875 237.48046875 C178.00009043 240.00008416 180.78309491 242.07128386 183.8125 244.1875 C193.2826576 251.21449655 201.62175351 261.10876753 204 273 C204.38867839 277.81961207 204.4910108 280.0530506 202.25 284.375 C199.49673675 287.58714045 197.62770005 288.76392137 193.44140625 289.37109375 C181.18130976 289.65389109 171.01429283 284.76178747 161 278 C159.31870101 276.31870101 159.63430074 274.14389751 159.40527344 271.88378906 C157.15641746 249.84903432 147.63567741 230.81848391 131 216 C127.53521097 213.40784962 123.9386999 211.04649131 120.3125 208.6875 C100.90675017 195.7111234 85.36985904 182.7266983 80.5234375 158.859375 C79.76275724 153.25077723 79.82627501 147.75141461 79.9921875 142.10546875 C79.99476562 141.08066406 79.99734375 140.05585938 80 139 C78.38416293 137.38416293 76.37578033 136.36382514 74.44189453 135.16992188 C62.01765607 127.4358415 48.26320093 117.18775902 43 103 C42.70222656 102.19820313 42.40445313 101.39640625 42.09765625 100.5703125 C40.55029691 95.53604662 39.88460319 91.21938069 40.4140625 85.98046875 C41.66353543 76.531405 41.66353543 76.531405 38.47363281 67.99316406 C34.42251818 64.35259458 29.78229268 61.70998422 25.01220703 59.12255859 C13.70901026 52.81679558 6.45137468 40.71926236 1.8125 29 C-0.02430676 22.21794428 -0.1363427 15.47529482 -0.0625 8.5 C-0.05798828 7.67757812 -0.05347656 6.85515625 -0.04882812 6.0078125 C-0.03718489 4.00517604 -0.01925556 2.00257773 0 0 Z " fill="#FEB8B8" transform="translate(41,89)"/>
<path d="M0 0 C3.39002721 1.29108191 6.52160831 2.75781541 9.67578125 4.546875 C10.57409668 5.05500732 11.47241211 5.56313965 12.39794922 6.08666992 C13.35975098 6.63556885 14.32155273 7.18446777 15.3125 7.75 C16.32070801 8.32274658 17.32891602 8.89549316 18.36767578 9.4855957 C33.10928347 17.88154612 47.73517027 26.47705513 62.34472656 35.10009766 C68.91177053 38.9666603 75.51977827 42.76165144 82.125 46.5625 C90.33912045 51.29141522 98.53641443 56.03809659 106.62890625 60.97265625 C108.99726429 62.39696427 111.36591648 63.77513803 113.77734375 65.12109375 C127.93206304 73.10957826 138.41442445 82.44291929 146 97 C146.47953125 97.91523437 146.9590625 98.83046875 147.453125 99.7734375 C153.61542892 112.43214616 156.07517673 126.16957441 158 140 C158.17112305 141.17449707 158.34224609 142.34899414 158.51855469 143.55908203 C159.16354722 148.78927238 159.22918337 154.01707747 159.31640625 159.28125 C159.33718735 160.33534058 159.35796844 161.38943115 159.37937927 162.47546387 C159.44435675 165.81691457 159.50351711 169.15843865 159.5625 172.5 C159.60573457 174.77604902 159.64935038 177.05209083 159.69335938 179.328125 C159.79998446 184.88534087 159.90184355 190.44262845 160 196 C156.21481268 194.5839494 152.80250679 192.84578935 149.30078125 190.83203125 C148.18711182 190.19362305 147.07344238 189.55521484 145.92602539 188.89746094 C144.72147447 188.20254754 143.51696712 187.50755862 142.3125 186.8125 C141.05931717 186.09250575 139.80597817 185.37278326 138.55249023 184.65332031 C134.69904795 182.44006965 130.84927191 180.22049342 127 178 C125.827492 177.32402469 124.65496652 176.6480797 123.48242188 175.97216797 C119.10710193 173.44945527 114.73232612 170.9258084 110.35913086 168.39941406 C100.25890177 162.5654256 90.13316429 156.77654907 80 151 C80 147.04 80 143.08 80 139 C81.32 139.33 82.64 139.66 84 140 C83.40574219 139.731875 82.81148438 139.46375 82.19921875 139.1875 C65.61782177 131.3480837 48.84263263 118.39465357 42.17553711 100.82763672 C39.94932071 94.1032963 39.60591405 87.9842034 39.75 80.9375 C39.75515625 79.89400391 39.7603125 78.85050781 39.765625 77.77539062 C39.84505637 70.15494363 39.84505637 70.15494363 41 69 C39.9275 68.525625 38.855 68.05125 37.75 67.5625 C24.10289582 60.67877549 10.61885582 48.87618648 4 35 C3.58878906 34.18015625 3.17757812 33.3603125 2.75390625 32.515625 C-1.52369397 22.27306668 -0.3595186 10.87958598 0 0 Z " fill="#FEB8B8" transform="translate(227,1)"/>
<path d="M0 0 C1.9822633 1.01760004 3.93734604 2.08930742 5.8671875 3.203125 C6.98738281 3.84636719 8.10757813 4.48960937 9.26171875 5.15234375 C10.46622512 5.85142592 11.67065013 6.55064826 12.875 7.25 C14.13387281 7.97568 15.39299103 8.70093441 16.65234375 9.42578125 C25.42983284 14.48439343 34.17863078 19.59268956 42.921875 24.71020508 C50.54549174 29.16758192 58.20362968 33.56301151 65.875 37.9375 C78.18432164 44.95695073 90.46504771 52.0247135 102.73388672 59.11474609 C106.11361088 61.06557806 109.4959356 63.01183506 112.87890625 64.95703125 C124.31541353 71.53611476 135.73050742 78.13788323 147 85 C144.07370751 88.17440814 141.15654511 90.2534503 137.3984375 92.36328125 C136.28065918 92.99572754 135.16288086 93.62817383 134.01123047 94.27978516 C132.79916058 94.95736918 131.58708359 95.63494049 130.375 96.3125 C129.12473035 97.01795163 127.8748989 97.7241804 126.62548828 98.43115234 C124.69357501 99.52416107 122.76139349 100.61666376 120.82785034 101.70678711 C114.15241105 105.47057758 107.51135973 109.29283799 100.875 113.125 C99.82876465 113.72739502 98.7825293 114.32979004 97.70458984 114.95043945 C96.70637207 115.52624756 95.7081543 116.10205566 94.6796875 116.6953125 C93.72674805 117.2409082 92.77380859 117.78650391 91.79199219 118.34863281 C89.90579911 119.46425103 88.04676527 120.62690815 86.21582031 121.83105469 C84.90629395 122.68425293 84.90629395 122.68425293 83.5703125 123.5546875 C82.80734863 124.07272949 82.04438477 124.59077148 81.25830078 125.12451172 C79 126 79 126 76.53393555 125.32568359 C75.69773682 124.88820801 74.86153809 124.45073242 74 124 C73.18104248 123.57428711 72.36208496 123.14857422 71.51831055 122.70996094 C70.64988525 122.22301758 69.78145996 121.73607422 68.88671875 121.234375 C67.89873291 120.68144775 66.91074707 120.12852051 65.89282227 119.55883789 C64.83506592 118.96192139 63.77730957 118.36500488 62.6875 117.75 C61.57882568 117.12665771 60.47015137 116.50331543 59.32788086 115.86108398 C49.87478749 110.52927404 40.49486434 105.07575516 31.1328125 99.5859375 C24.58819254 95.75075204 18.01307251 91.96928385 11.4375 88.1875 C4.24363832 84.04520917 -2.94148541 79.89161062 -10.0625 75.625 C-10.669729 75.26172607 -11.27695801 74.89845215 -11.90258789 74.52416992 C-15.86950739 72.13049261 -15.86950739 72.13049261 -17 71 C-17.12230369 69.34416704 -17.17984183 67.68348992 -17.2109375 66.0234375 C-17.23728271 64.9708374 -17.26362793 63.9182373 -17.29077148 62.83374023 C-17.3324646 61.12166382 -17.3324646 61.12166382 -17.375 59.375 C-17.65619016 50.32744049 -18.23868206 41.41155101 -19.4375 32.4375 C-19.5597998 31.5182373 -19.68209961 30.59897461 -19.80810547 29.65185547 C-20.40403681 25.43693923 -21.12735607 21.30551799 -22.09765625 17.16015625 C-23.57711412 10.46147918 -23.57711412 10.46147918 -23 8 C-20.89780959 6.31399469 -19.07896213 5.0916837 -16.75 3.8125 C-15.87021484 3.29913086 -15.87021484 3.29913086 -14.97265625 2.77539062 C-13.32965207 1.82466349 -11.66530908 0.91109301 -10 0 C-9.32453125 -0.44988281 -8.6490625 -0.89976562 -7.953125 -1.36328125 C-4.91658663 -2.35319276 -2.93431135 -1.12139709 0 0 Z " fill="#010000" transform="translate(218,195)"/>
<path d="M0 0 C2.66284672 1.23460367 5.21555698 2.56451339 7.77563477 4 C8.76345947 4.55284668 9.75128418 5.10569336 10.76904297 5.67529297 C11.82696045 6.27229004 12.88487793 6.86928711 13.97485352 7.484375 C15.08497803 8.10844238 16.19510254 8.73250977 17.33886719 9.37548828 C25.74823123 14.11807192 34.09926787 18.95683606 42.42724609 23.84082031 C50.14089593 28.36108054 57.89394186 32.80926157 65.66235352 37.234375 C74.35653462 42.18786916 83.02736158 47.1781083 91.66235352 52.234375 C101.57977855 58.04109681 111.54715303 63.75704016 121.53051758 69.44921875 C131.26633545 75.00107123 140.9728863 80.60207386 150.66235352 86.234375 C147.71896192 89.4319289 144.77456213 91.51135833 140.99047852 93.6328125 C139.86206543 94.27105957 138.73365234 94.90930664 137.57104492 95.56689453 C136.35171938 96.24814797 135.1321501 96.92896533 133.91235352 97.609375 C131.38208119 99.02836846 128.85382216 100.45090856 126.32641602 101.875 C125.68711151 102.23453766 125.04780701 102.59407532 124.38912964 102.96450806 C120.10274812 105.38649804 115.8843674 107.8974076 111.68579102 110.46875 C110.60523438 111.12439941 109.52467773 111.78004883 108.41137695 112.45556641 C106.36570543 113.70221743 104.32940243 114.96440499 102.30395508 116.24365234 C95.5758142 120.30950297 95.5758142 120.30950297 91.67016602 119.98828125 C90.67758789 119.40949219 89.68500977 118.83070313 88.66235352 118.234375 C87.90841309 117.81897461 87.15447266 117.40357422 86.37768555 116.97558594 C83.52394197 115.38306915 80.7188203 113.72124702 77.91235352 112.046875 C75.74867803 110.77017722 73.58460186 109.49415829 71.42016602 108.21875 C70.30416016 107.55939453 69.1881543 106.90003906 68.03833008 106.22070312 C62.64109076 103.04512176 57.21474001 99.92056251 51.78735352 96.796875 C49.59982461 95.5365085 47.41232476 94.27609158 45.22485352 93.015625 C44.13946289 92.39042969 43.05407227 91.76523438 41.93579102 91.12109375 C38.69760192 89.2546912 35.46095914 87.38563737 32.22485352 85.515625 C21.60293573 79.37891119 10.97034186 73.26201353 0.31411743 67.18511963 C-10.10298863 61.24450103 -20.49523256 55.26385284 -30.84008789 49.19799805 C-35.56070513 46.43061532 -40.29071599 43.68435209 -45.05249023 40.98828125 C-45.94572998 40.48014893 -46.83896973 39.9720166 -47.75927734 39.44848633 C-49.43756073 38.49548326 -51.11921435 37.54838311 -52.8046875 36.6081543 C-54.68182914 35.53924648 -56.51556967 34.39465976 -58.33764648 33.234375 C-58.33764648 32.574375 -58.33764648 31.914375 -58.33764648 31.234375 C-57.24432007 30.63133545 -57.24432007 30.63133545 -56.12890625 30.01611328 C-38.91898455 20.54358681 -38.91898455 20.54358681 -21.90014648 10.734375 C-20.90204956 10.1472876 -20.90204956 10.1472876 -19.88378906 9.54833984 C-16.83085104 7.74441865 -13.80766725 5.9072585 -10.81811523 4 C-9.75206055 3.33484375 -8.68600586 2.6696875 -7.58764648 1.984375 C-6.68530273 1.40171875 -5.78295898 0.8190625 -4.85327148 0.21875 C-2.33764648 -0.765625 -2.33764648 -0.765625 0 0 Z " fill="#010000" transform="translate(297.337646484375,145.765625)"/>
<path d="M0 0 C8.01718019 3.89368158 15.77313618 8.07932358 23.4375 12.625 C25.52032247 13.85112864 27.6036672 15.07637049 29.6875 16.30078125 C30.73035156 16.9138916 31.77320313 17.52700195 32.84765625 18.15869141 C38.75641554 21.61004383 44.70904848 24.98476914 50.66381836 28.35595703 C51.48503174 28.82243652 52.30624512 29.28891602 53.15234375 29.76953125 C53.87413818 30.17792236 54.59593262 30.58631348 55.33959961 31.00708008 C57 32 57 32 58 33 C58.0927833 34.38160115 58.11747043 35.76788038 58.11352539 37.15258789 C58.11344986 38.03342545 58.11337433 38.914263 58.11329651 39.8217926 C58.10813522 40.77907761 58.10297394 41.73636261 58.09765625 42.72265625 C58.0962413 43.69786728 58.09482635 44.67307831 58.09336853 45.67784119 C58.08775133 48.80609143 58.07519593 51.93427123 58.0625 55.0625 C58.05748722 57.17773334 58.05292393 59.29296781 58.04882812 61.40820312 C58.03777631 66.60549296 58.02102146 71.80274145 58 77 C54.45565573 75.65544302 51.19200807 74.08771656 47.88671875 72.234375 C46.89696045 71.68048096 45.90720215 71.12658691 44.88745117 70.5559082 C43.30347534 69.66198364 43.30347534 69.66198364 41.6875 68.75 C40.59477783 68.13535889 39.50205566 67.52071777 38.3762207 66.88745117 C30.44953765 62.414955 22.55619035 57.88629342 14.6875 53.3125 C13.67453857 52.72500977 12.66157715 52.13751953 11.61791992 51.53222656 C10.20410034 50.70609863 10.20410034 50.70609863 8.76171875 49.86328125 C7.5236145 49.14072144 7.5236145 49.14072144 6.26049805 48.40356445 C5.51453369 47.94038818 4.76856934 47.47721191 4 47 C3.24984619 46.65050293 2.49969238 46.30100586 1.72680664 45.94091797 C-1.2686783 42.57401492 -0.48500008 38.41087788 -0.390625 34.08203125 C-0.38496521 33.10965012 -0.37930542 32.13726898 -0.37347412 31.13542175 C-0.35106929 28.027282 -0.30086481 24.92029176 -0.25 21.8125 C-0.22994033 19.70639685 -0.21168864 17.60027564 -0.1953125 15.49414062 C-0.15119093 10.32898364 -0.0821346 5.16468676 0 0 Z " fill="#FCB8B8" transform="translate(218,387)"/>
<path d="M0 0 C4.86262912 1.4095658 8.95515046 3.57057973 13.25 6.1875 C14.76618915 7.09498405 16.28316888 8.00114806 17.80078125 8.90625 C19.04335693 9.64875 19.04335693 9.64875 20.31103516 10.40625 C25.32667943 13.37902336 30.38421088 16.2793436 35.4375 19.1875 C36.53666748 19.82091309 37.63583496 20.45432617 38.76831055 21.10693359 C42.17846893 23.07199272 45.58916 25.03612425 49 27 C52.41104255 28.96399237 55.8219375 30.92823416 59.23193359 32.89404297 C61.43145222 34.16099923 63.63227564 35.42569329 65.83447266 36.68798828 C70.67825327 39.47083876 75.49306247 42.27975012 80.234375 45.234375 C81.0173999 45.71672607 81.8004248 46.19907715 82.60717773 46.69604492 C84.02796593 47.57638939 85.43983376 48.47138111 86.84008789 49.3840332 C88.88433766 50.70184098 88.88433766 50.70184098 92 52 C95.46466509 50.92443282 98.52858409 49.2382279 101.67578125 47.453125 C103.02325439 46.69092651 103.02325439 46.69092651 104.39794922 45.91333008 C105.35975098 45.36443115 106.32155273 44.81553223 107.3125 44.25 C108.32070801 43.67725342 109.32891602 43.10450684 110.36767578 42.5144043 C123.37920146 35.10380657 136.34642192 27.60377738 149.18359375 19.89453125 C149.97137207 19.42362061 150.75915039 18.95270996 151.57080078 18.4675293 C153.02188167 17.59849272 154.46971324 16.72399759 155.91357422 15.84301758 C160.66584653 13 160.66584653 13 164 13 C162.7220314 16.8339058 161.52549332 17.10636815 158.03125 19.00390625 C156.99427979 19.57423584 155.95730957 20.14456543 154.88891602 20.73217773 C153.21140259 21.63818726 153.21140259 21.63818726 151.5 22.5625 C149.18543129 23.83454357 146.87162963 25.10798382 144.55859375 26.3828125 C142.86065674 27.31528809 142.86065674 27.31528809 141.12841797 28.26660156 C136.61864107 30.76538539 132.1157309 33.29622146 127.77738762 36.08501339 C123.50503551 38.76948442 119.3276506 40.66241111 114.57327271 42.3629303 C102.41456271 47.16462949 102.41456271 47.16462949 94.15688229 56.83942175 C90.62068783 68.03175522 91.77862699 80.70024729 92.16182852 92.26235843 C92.29717864 97.18264903 92.28354523 102.10259974 92.28640747 107.02442932 C92.31410499 116.32386438 92.47376504 125.61605385 92.68212235 134.91300493 C92.91298707 145.5051026 92.99484069 156.09676167 93.06482863 166.69095314 C93.21197366 188.4641497 93.54414406 210.2312204 94 232 C93.34 232 92.68 232 92 232 C92.02065647 231.10253807 92.04131294 230.20507614 92.06259537 229.2804184 C92.55677993 207.38622463 92.89412576 185.49442898 93.05958939 163.59519196 C93.14334844 153.00389297 93.27903435 142.41813771 93.53955078 131.82958984 C93.76664898 122.59383864 93.893693 113.36287802 93.90351081 104.12424898 C93.91212703 99.23503307 93.96879946 94.35762378 94.14563751 89.47135925 C95.61051257 70.62309299 95.61051257 70.62309299 89.76790428 53.35214233 C83.45849215 46.84773603 74.97337529 43.5566714 66.63552094 40.46057129 C60.67799239 38.06713296 55.35844499 34.75892134 49.875 31.4375 C47.74728985 30.20271645 45.61737216 28.97172175 43.484375 27.74609375 C42.42669922 27.13491699 41.36902344 26.52374023 40.27929688 25.89404297 C36.85903194 23.91858024 33.43754365 21.94525228 30.015625 19.97265625 C28.85042131 19.30086587 27.68521947 18.62907228 26.52001953 17.95727539 C24.33880563 16.69977562 22.15749843 15.44243765 19.97607422 14.18530273 C12.97109378 10.1456173 5.98125815 6.08053996 -1 2 C-0.67 1.34 -0.34 0.68 0 0 Z " fill="#FEB9B9" transform="translate(203,268)"/>
<path d="M0 0 C4.86262912 1.4095658 8.95515046 3.57057973 13.25 6.1875 C14.76618915 7.09498405 16.28316888 8.00114806 17.80078125 8.90625 C19.04335693 9.64875 19.04335693 9.64875 20.31103516 10.40625 C25.32668009 13.37902376 30.38423498 16.27930057 35.4375 19.1875 C36.53521729 19.82018799 37.63293457 20.45287598 38.76391602 21.10473633 C44.48141701 24.39981264 50.20122969 27.69085516 55.921875 30.98046875 C67.34341837 37.55281976 78.7444495 44.14637271 90 51 C89.67 51.99 89.34 52.98 89 54 C72.69921875 44.59570312 72.69921875 44.59570312 56.3984375 35.19140625 C55.33947266 34.58047119 54.28050781 33.96953613 53.18945312 33.34008789 C51.05531688 32.10884288 48.92120246 30.87756005 46.78710938 29.64624023 C41.7808549 26.7578129 36.77441107 23.86971573 31.76715088 20.98303223 C30.01658759 19.97380896 28.26609589 18.96446164 26.515625 17.95507812 C24.33607835 16.6983234 22.15640168 15.44179414 19.9765625 14.18554688 C12.97138717 10.14583558 5.98141493 6.0806316 -1 2 C-0.67 1.34 -0.34 0.68 0 0 Z " fill="#E3A6A6" transform="translate(203,268)"/>
<path d="M0 0 C-1.2779686 3.8339058 -2.47450668 4.10636815 -5.96875 6.00390625 C-7.00588135 6.57431641 -8.0430127 7.14472656 -9.11157227 7.73242188 C-10.78884399 8.63831055 -10.78884399 8.63831055 -12.5 9.5625 C-14.81195773 10.83325402 -17.12315501 12.10539255 -19.43359375 13.37890625 C-20.56522949 14.00039551 -21.69686523 14.62188477 -22.86279297 15.26220703 C-26.80193083 17.44421351 -30.69202124 19.69893685 -34.5625 22 C-35.87497996 22.77867961 -37.18748063 23.55732432 -38.5 24.3359375 C-39.53833984 24.95227051 -39.53833984 24.95227051 -40.59765625 25.58105469 C-45.73947728 28.61807337 -50.90294471 31.6182468 -56.0625 34.625 C-57.14152588 35.2540625 -58.22055176 35.883125 -59.33227539 36.53125 C-61.88801835 38.02111716 -64.44392412 39.51070411 -67 41 C-67.495 39.515 -67.495 39.515 -68 38 C-57.03950573 31.51224225 -46.02714442 25.1186551 -34.98266602 18.77490234 C-29.47858687 15.60731264 -23.99404876 12.41306801 -18.546875 9.1484375 C-17.53713623 8.54427002 -16.52739746 7.94010254 -15.48706055 7.31762695 C-13.57621303 6.17086322 -11.66866182 5.01858399 -9.76489258 3.86010742 C-8.49101685 3.09597534 -8.49101685 3.09597534 -7.19140625 2.31640625 C-6.45092041 1.86724854 -5.71043457 1.41809082 -4.94750977 0.95532227 C-3 0 -3 0 0 0 Z " fill="#E1A4A4" transform="translate(367,281)"/>
<path d="M0 0 C-1.26203301 3.78609902 -2.38193903 4.08350755 -5.80078125 6.01171875 C-6.8280835 6.59751709 -7.85538574 7.18331543 -8.91381836 7.78686523 C-10.0353833 8.41407471 -11.15694824 9.04128418 -12.3125 9.6875 C-14.0669715 10.68165532 -15.82143549 11.6758241 -17.57551575 12.67066956 C-18.8029541 13.3658587 -20.03114994 14.05971193 -21.26005554 14.75230408 C-25.81027347 17.31707649 -30.33508565 19.92321756 -34.8515625 22.546875 C-36.75979574 23.65173836 -38.6684271 24.75591013 -40.57723999 25.85977173 C-41.81547801 26.57713603 -43.05264643 27.29634979 -44.28872681 28.01742554 C-46.02099343 29.02680099 -47.75843391 30.02728138 -49.49609375 31.02734375 C-50.48794678 31.60218506 -51.4797998 32.17702637 -52.50170898 32.76928711 C-55 34 -55 34 -58 34 C-58 33.34 -58 32.68 -58 32 C-57.27748047 31.58862793 -56.55496094 31.17725586 -55.81054688 30.75341797 C-42.65705929 23.26058321 -29.51487642 15.75009773 -16.4375 8.125 C-15.42816406 7.53702637 -14.41882813 6.94905273 -13.37890625 6.34326172 C-2.52300116 0 -2.52300116 0 0 0 Z " fill="#E6A8A8" transform="translate(450,233)"/>
<path d="M0 0 C-1.2179755 3.65392651 -2.14396506 3.95831699 -5.4375 5.75 C-6.64212891 6.42289062 -6.64212891 6.42289062 -7.87109375 7.109375 C-8.92490234 7.55023438 -8.92490234 7.55023438 -10 8 C-10.66 7.67 -11.32 7.34 -12 7 C-9.20232475 3.70861735 -4.40323273 0 0 0 Z " fill="#EAAAAA" transform="translate(325,305)"/>
<path d="M0 0 C-1.2179755 3.65392651 -2.14396506 3.95831699 -5.4375 5.75 C-6.64212891 6.42289062 -6.64212891 6.42289062 -7.87109375 7.109375 C-8.92490234 7.55023438 -8.92490234 7.55023438 -10 8 C-10.66 7.67 -11.32 7.34 -12 7 C-9.20232475 3.70861735 -4.40323273 0 0 0 Z " fill="#EBACAC" transform="translate(351,290)"/>
<path d="M0 0 C0.66 0.33 1.32 0.66 2 1 C2 1.66 2 2.32 2 3 C-2.95 5.475 -2.95 5.475 -8 8 C-8.33 7.01 -8.66 6.02 -9 5 C-7.54735962 4.1361871 -6.0876837 3.28419546 -4.625 2.4375 C-3.40683594 1.72400391 -3.40683594 1.72400391 -2.1640625 0.99609375 C-1.44992187 0.66738281 -0.73578125 0.33867187 0 0 Z " fill="#E0A3A3" transform="translate(430,243)"/>
<path d="M0 0 C-1.10699901 3.21029714 -2.01603825 4.00968977 -5 5.8125 C-5.99 6.204375 -6.98 6.59625 -8 7 C-8.66 6.67 -9.32 6.34 -10 6 C-4.4 0 -4.4 0 0 0 Z " fill="#ECACAC" transform="translate(441,238)"/>
<path d="M0 0 C0.66 0.33 1.32 0.66 2 1 C2 1.66 2 2.32 2 3 C0.02 3.99 -1.96 4.98 -4 6 C-4.99 5.34 -5.98 4.68 -7 4 C-1.7265625 0.77734375 -1.7265625 0.77734375 0 0 Z " fill="#DA9F9F" transform="translate(312,311)"/>
</svg>
